<svg width="166" height="27" viewBox="0 0 166 27" fill="none" xmlns="http://www.w3.org/2000/svg">
<path d="M19.168 1.86875V6.57813H12.7742V26H6.89612V6.57813H0.502368V1.86875H19.168ZM27.9962 10.0156C28.6837 8.96146 29.5431 8.13646 30.5743 7.54062C31.6056 6.92187 32.7514 6.6125 34.0118 6.6125V12.8344H32.3962C30.9295 12.8344 29.8295 13.1552 29.0962 13.7969C28.3629 14.4156 27.9962 15.5156 27.9962 17.0969V26H22.1181V6.81875H27.9962V10.0156ZM35.6527 16.375C35.6527 14.4042 36.0194 12.674 36.7527 11.1844C37.5089 9.69479 38.5287 8.54896 39.8121 7.74687C41.0954 6.94479 42.5277 6.54375 44.1089 6.54375C45.461 6.54375 46.6412 6.81875 47.6496 7.36875C48.6808 7.91875 49.4714 8.64062 50.0214 9.53437V6.81875H55.8996V26H50.0214V23.2844C49.4485 24.1781 48.6464 24.9 47.6152 25.45C46.6069 26 45.4266 26.275 44.0746 26.275C42.5162 26.275 41.0954 25.874 39.8121 25.0719C38.5287 24.2469 37.5089 23.0896 36.7527 21.6C36.0194 20.0875 35.6527 18.3458 35.6527 16.375ZM50.0214 16.4094C50.0214 14.9427 49.6089 13.7854 48.7839 12.9375C47.9819 12.0896 46.9964 11.6656 45.8277 11.6656C44.6589 11.6656 43.6621 12.0896 42.8371 12.9375C42.035 13.7625 41.6339 14.9083 41.6339 16.375C41.6339 17.8417 42.035 19.0104 42.8371 19.8812C43.6621 20.7292 44.6589 21.1531 45.8277 21.1531C46.9964 21.1531 47.9819 20.7292 48.7839 19.8812C49.6089 19.0333 50.0214 17.876 50.0214 16.4094ZM68.7802 20.5L72.9396 6.81875H79.1959L72.3896 26H65.1365L58.3302 6.81875H64.6209L68.7802 20.5ZM99.7513 16.1C99.7513 16.65 99.7169 17.2229 99.6482 17.8187H86.3451C86.4367 19.0104 86.8149 19.9271 87.4794 20.5687C88.1669 21.1875 89.0034 21.4969 89.9888 21.4969C91.4555 21.4969 92.4753 20.8781 93.0482 19.6406H99.3044C98.9836 20.901 98.3992 22.0354 97.5513 23.0437C96.7263 24.0521 95.6836 24.8427 94.4232 25.4156C93.1628 25.9885 91.7534 26.275 90.1951 26.275C88.3159 26.275 86.643 25.874 85.1763 25.0719C83.7097 24.2698 82.5638 23.124 81.7388 21.6344C80.9138 20.1448 80.5013 18.4031 80.5013 16.4094C80.5013 14.4156 80.9024 12.674 81.7044 11.1844C82.5294 9.69479 83.6753 8.54896 85.1419 7.74687C86.6086 6.94479 88.293 6.54375 90.1951 6.54375C92.0513 6.54375 93.7013 6.93333 95.1451 7.7125C96.5888 8.49167 97.7117 9.60312 98.5138 11.0469C99.3388 12.4906 99.7513 14.175 99.7513 16.1ZM93.7357 14.5531C93.7357 13.5448 93.3919 12.7427 92.7044 12.1469C92.0169 11.551 91.1576 11.2531 90.1263 11.2531C89.1409 11.2531 88.3044 11.5396 87.6169 12.1125C86.9524 12.6854 86.5399 13.499 86.3794 14.5531H93.7357ZM108.73 0.5625V26H102.852V0.5625H108.73ZM131.931 6.81875V26H126.053V23.3875C125.457 24.2354 124.643 24.9229 123.612 25.45C122.604 25.9542 121.481 26.2063 120.243 26.2063C118.777 26.2063 117.482 25.8854 116.359 25.2437C115.236 24.5792 114.365 23.6281 113.747 22.3906C113.128 21.1531 112.818 19.6979 112.818 18.025V6.81875H118.662V17.2344C118.662 18.5177 118.994 19.5146 119.659 20.225C120.324 20.9354 121.217 21.2906 122.34 21.2906C123.486 21.2906 124.391 20.9354 125.056 20.225C125.72 19.5146 126.053 18.5177 126.053 17.2344V6.81875H131.931ZM142.031 0.5625V26H136.153V0.5625H142.031ZM165.232 6.81875V26H159.354V23.3875C158.758 24.2354 157.944 24.9229 156.913 25.45C155.905 25.9542 154.782 26.2063 153.544 26.2063C152.077 26.2063 150.783 25.8854 149.66 25.2437C148.537 24.5792 147.666 23.6281 147.047 22.3906C146.429 21.1531 146.119 19.6979 146.119 18.025V6.81875H151.963V17.2344C151.963 18.5177 152.295 19.5146 152.96 20.225C153.624 20.9354 154.518 21.2906 155.641 21.2906C156.787 21.2906 157.692 20.9354 158.357 20.225C159.021 19.5146 159.354 18.5177 159.354 17.2344V6.81875H165.232Z" fill="#5F2EEA"/>
</svg>
