<svg width="166" height="27" viewBox="0 0 166 27" fill="none" xmlns="http://www.w3.org/2000/svg">
<path d="M19.4906 1.86875V6.57813H13.0969V26H7.21875V6.57813H0.825V1.86875H19.4906ZM28.3188 10.0156C29.0063 8.96146 29.8657 8.13646 30.8969 7.54062C31.9282 6.92187 33.074 6.6125 34.3344 6.6125V12.8344H32.7188C31.2522 12.8344 30.1522 13.1552 29.4188 13.7969C28.6855 14.4156 28.3188 15.5156 28.3188 17.0969V26H22.4407V6.81875H28.3188V10.0156ZM35.9753 16.375C35.9753 14.4042 36.342 12.674 37.0753 11.1844C37.8316 9.69479 38.8514 8.54896 40.1347 7.74687C41.418 6.94479 42.8503 6.54375 44.4316 6.54375C45.7837 6.54375 46.9639 6.81875 47.9722 7.36875C49.0034 7.91875 49.7941 8.64062 50.3441 9.53437V6.81875H56.2222V26H50.3441V23.2844C49.7712 24.1781 48.9691 24.9 47.9378 25.45C46.9295 26 45.7493 26.275 44.3972 26.275C42.8389 26.275 41.418 25.874 40.1347 25.0719C38.8514 24.2469 37.8316 23.0896 37.0753 21.6C36.342 20.0875 35.9753 18.3458 35.9753 16.375ZM50.3441 16.4094C50.3441 14.9427 49.9316 13.7854 49.1066 12.9375C48.3045 12.0896 47.3191 11.6656 46.1503 11.6656C44.9816 11.6656 43.9847 12.0896 43.1597 12.9375C42.3576 13.7625 41.9566 14.9083 41.9566 16.375C41.9566 17.8417 42.3576 19.0104 43.1597 19.8812C43.9847 20.7292 44.9816 21.1531 46.1503 21.1531C47.3191 21.1531 48.3045 20.7292 49.1066 19.8812C49.9316 19.0333 50.3441 17.876 50.3441 16.4094ZM69.1029 20.5L73.2623 6.81875H79.5185L72.7123 26H65.4591L58.6529 6.81875H64.9435L69.1029 20.5ZM100.074 16.1C100.074 16.65 100.04 17.2229 99.9708 17.8187H86.6677C86.7594 19.0104 87.1375 19.9271 87.8021 20.5687C88.4896 21.1875 89.326 21.4969 90.3115 21.4969C91.7781 21.4969 92.7979 20.8781 93.3708 19.6406H99.6271C99.3062 20.901 98.7219 22.0354 97.874 23.0437C97.049 24.0521 96.0062 24.8427 94.7458 25.4156C93.4854 25.9885 92.076 26.275 90.5177 26.275C88.6385 26.275 86.9656 25.874 85.499 25.0719C84.0323 24.2698 82.8865 23.124 82.0615 21.6344C81.2365 20.1448 80.824 18.4031 80.824 16.4094C80.824 14.4156 81.225 12.674 82.0271 11.1844C82.8521 9.69479 83.9979 8.54896 85.4646 7.74687C86.9312 6.94479 88.6156 6.54375 90.5177 6.54375C92.374 6.54375 94.024 6.93333 95.4677 7.7125C96.9115 8.49167 98.0344 9.60312 98.8365 11.0469C99.6615 12.4906 100.074 14.175 100.074 16.1ZM94.0583 14.5531C94.0583 13.5448 93.7146 12.7427 93.0271 12.1469C92.3396 11.551 91.4802 11.2531 90.449 11.2531C89.4635 11.2531 88.6271 11.5396 87.9396 12.1125C87.275 12.6854 86.8625 13.499 86.7021 14.5531H94.0583ZM109.053 0.5625V26H103.175V0.5625H109.053ZM132.254 6.81875V26H126.375V23.3875C125.78 24.2354 124.966 24.9229 123.935 25.45C122.926 25.9542 121.804 26.2063 120.566 26.2063C119.099 26.2063 117.805 25.8854 116.682 25.2437C115.559 24.5792 114.688 23.6281 114.069 22.3906C113.45 21.1531 113.141 19.6979 113.141 18.025V6.81875H118.985V17.2344C118.985 18.5177 119.317 19.5146 119.982 20.225C120.646 20.9354 121.54 21.2906 122.663 21.2906C123.809 21.2906 124.714 20.9354 125.379 20.225C126.043 19.5146 126.375 18.5177 126.375 17.2344V6.81875H132.254ZM142.354 0.5625V26H136.476V0.5625H142.354ZM165.554 6.81875V26H159.676V23.3875C159.08 24.2354 158.267 24.9229 157.236 25.45C156.227 25.9542 155.104 26.2063 153.867 26.2063C152.4 26.2063 151.105 25.8854 149.982 25.2437C148.86 24.5792 147.989 23.6281 147.37 22.3906C146.751 21.1531 146.442 19.6979 146.442 18.025V6.81875H152.286V17.2344C152.286 18.5177 152.618 19.5146 153.282 20.225C153.947 20.9354 154.841 21.2906 155.964 21.2906C157.11 21.2906 158.015 20.9354 158.679 20.225C159.344 19.5146 159.676 18.5177 159.676 17.2344V6.81875H165.554Z" fill="#FCFCFC"/>
</svg>
